<?xml version="1.0" encoding="utf-8"?>
<!-- Generator: Adobe Illustrator 20.1.0, SVG Export Plug-In . SVG Version: 6.00 Build 0)  -->
<svg version="1.1" id="Layer_1" xmlns="http://www.w3.org/2000/svg" xmlns:xlink="http://www.w3.org/1999/xlink" x="0px" y="0px"
	 viewBox="0 0 200 81.8" style="enable-background:new 0 0 200 81.8;" xml:space="preserve">
<style type="text/css">
	.st0{fill:#3EB1C8;}
	.st1{fill:#D8D2C4;}
	.st2{fill:#4F5858;}
	.st3{fill:#FFC72C;}
	.st4{fill:#EF3340;}
</style>
<polygon class="st0" points="0,62.6 0,43.9 15.5,38.8 42.8,48.2 "/>
<polygon class="st1" points="27.3,24.3 0,33.7 15.5,38.8 42.8,29.4 "/>
<polygon class="st2" points="15.5,38.8 42.8,29.4 42.8,48.2 "/>
<polygon class="st3" points="42.8,0.4 42.8,19.2 27.3,24.3 0,14.9 "/>
<polygon class="st4" points="27.3,24.3 0,33.7 0,14.9 "/>
<g>
	<g>
		<g>
			<g>
				<path class="st2" d="M70,34.7c-0.3-2.4-2.7-4.3-5.3-4.3c-4.8,0-6.6,4.1-6.6,8.3c0,4.1,1.8,8.1,6.6,8.1c3.3,0,5.1-2.2,5.5-5.4
					h5.2c-0.5,6.1-4.7,9.9-10.7,9.9c-7.5,0-12-5.6-12-12.6c0-7.2,4.4-12.8,12-12.8c5.3,0,9.8,3.1,10.5,8.8H70z"/>
				<path class="st2" d="M77.3,33.3h4.6v3.3h0.1c0.9-2.2,3.3-3.7,5.6-3.7c0.3,0,0.7,0.1,1.1,0.2v4.5c-0.4-0.1-1.2-0.2-1.7-0.2
					c-3.5,0-4.8,2.6-4.8,5.7v7.9h-4.8V33.3z"/>
				<path class="st2" d="M97.8,32.8c5.6,0,9.1,3.7,9.1,9.3c0,5.6-3.6,9.3-9.1,9.3c-5.5,0-9.1-3.7-9.1-9.3
					C88.7,36.5,92.3,32.8,97.8,32.8z M97.8,47.7c3.3,0,4.3-2.8,4.3-5.6c0-2.8-1-5.7-4.3-5.7c-3.3,0-4.3,2.8-4.3,5.7
					C93.6,44.9,94.5,47.7,97.8,47.7z"/>
				<path class="st2" d="M112.6,45.2c0,2.1,1.8,3,3.7,3c1.4,0,3.2-0.5,3.2-2.2c0-1.5-2-2-5.5-2.7c-2.8-0.6-5.6-1.6-5.6-4.7
					c0-4.5,3.9-5.7,7.7-5.7c3.8,0,7.4,1.3,7.8,5.6h-4.6c-0.1-1.9-1.6-2.4-3.3-2.4c-1.1,0-2.7,0.2-2.7,1.6c0,1.7,2.7,2,5.5,2.6
					c2.8,0.6,5.6,1.7,5.6,4.9c0,4.6-4,6.1-8,6.1c-4.1,0-8.1-1.5-8.3-6.2H112.6z"/>
				<path class="st2" d="M130.2,45.2c0,2.1,1.8,3,3.7,3c1.4,0,3.2-0.5,3.2-2.2c0-1.5-2-2-5.5-2.7c-2.8-0.6-5.6-1.6-5.6-4.7
					c0-4.5,3.9-5.7,7.7-5.7c3.8,0,7.4,1.3,7.8,5.6h-4.6c-0.1-1.9-1.6-2.4-3.3-2.4c-1.1,0-2.7,0.2-2.7,1.6c0,1.7,2.7,2,5.5,2.6
					c2.8,0.6,5.6,1.7,5.6,4.9c0,4.6-4,6.1-8,6.1c-4.1,0-8.1-1.5-8.3-6.2H130.2z"/>
				<path class="st2" d="M143.5,33.3h4.6v3.3h0.1c0.9-2.2,3.3-3.7,5.6-3.7c0.3,0,0.7,0.1,1.1,0.2v4.5c-0.4-0.1-1.2-0.2-1.7-0.2
					c-3.5,0-4.8,2.6-4.8,5.7v7.9h-4.8V33.3z"/>
				<path class="st2" d="M160.1,43.3c0.1,3.1,1.6,4.5,4.3,4.5c1.9,0,3.5-1.2,3.8-2.3h4.3c-1.4,4.2-4.3,5.9-8.2,5.9
					c-5.6,0-9-3.8-9-9.3c0-5.3,3.6-9.3,9-9.3c6,0,8.9,5,8.5,10.5H160.1z M168,40.2c-0.4-2.5-1.5-3.7-3.8-3.7c-3.1,0-4,2.4-4,3.7H168
					z"/>
				<path class="st2" d="M175.5,36.5h-2.9v-3.2h2.9v-1.4c0-3.1,1.9-5.3,5.9-5.3c0.9,0,1.7,0.1,2.6,0.1v3.6c-0.6-0.1-1.2-0.1-1.8-0.1
					c-1.3,0-1.8,0.5-1.8,2v1.1h3.3v3.2h-3.3v14.4h-4.8V36.5z"/>
			</g>
		</g>
	</g>
</g>
<g>
	<path class="st2" d="M53.6,62.1h9.7v1.7h-7.8v4.7h6.8v1.7h-6.8v6.8h-2V62.1z"/>
	<path class="st2" d="M74.2,76.9h-1.7v-1.7h0c-0.7,1.3-2,2-3.5,2c-2.8,0-3.7-1.6-3.7-3.9v-7.1H67v7.3c0,1.3,0.8,2.2,2.2,2.2
		c2.1,0,3.2-1.4,3.2-3.4v-6.1h1.8V76.9z"/>
	<path class="st2" d="M76.8,66.2h1.7v1.7h0c0.7-1.3,2-2,3.5-2c2.8,0,3.7,1.6,3.7,3.9v7.1h-1.8v-7.3c0-1.3-0.8-2.2-2.2-2.2
		c-2.1,0-3.2,1.4-3.2,3.4v6.1h-1.8V66.2z"/>
	<path class="st2" d="M98,76.9h-1.8v-1.5h0c-0.6,1.2-2,1.7-3.4,1.7c-3.3,0-4.9-2.6-4.9-5.7c0-3,1.6-5.6,4.9-5.6
		c1.1,0,2.7,0.4,3.5,1.7h0v-5.5H98V76.9z M93,75.6c2.4,0,3.3-2,3.3-4.1c0-2.1-1-4.1-3.4-4.1c-2.4,0-3.2,2.1-3.2,4.2
		C89.7,73.7,90.7,75.6,93,75.6z"/>
	<path class="st2" d="M109.8,73.5c-0.5,2.4-2.2,3.7-4.6,3.7c-3.4,0-5-2.4-5.2-5.7c0-3.2,2.1-5.6,5-5.6c3.8,0,5,3.6,4.9,6.1h-8
		c-0.1,1.9,1,3.5,3.3,3.5c1.5,0,2.5-0.7,2.8-2.1H109.8z M108.1,70.5c-0.1-1.7-1.4-3-3.1-3c-1.8,0-2.9,1.4-3.1,3H108.1z"/>
	<path class="st2" d="M111.8,66.2h1.7v2.3h0c0.9-1.7,2-2.6,3.9-2.5v1.9c-2.8,0-3.9,1.6-3.9,4.3v4.8h-1.8V66.2z"/>
	<path class="st2" d="M125.5,62.1h7c2.8,0,4.5,1.5,4.5,3.9c0,1.8-0.8,3.3-2.6,3.8v0c1.7,0.3,2.1,1.6,2.2,3.1c0.1,1.5,0,3.1,0.9,4.1
		h-2.2c-0.6-0.6-0.2-2.2-0.5-3.7c-0.2-1.5-0.6-2.7-2.5-2.7h-4.8v6.3h-2V62.1z M131.6,68.9c1.8,0,3.4-0.5,3.4-2.6
		c0-1.5-0.8-2.5-2.6-2.5h-4.9v5.2H131.6z"/>
	<path class="st2" d="M148.6,73.5c-0.5,2.4-2.2,3.7-4.6,3.7c-3.4,0-5-2.4-5.2-5.7c0-3.2,2.1-5.6,5-5.6c3.8,0,5,3.6,4.9,6.1h-8
		c-0.1,1.9,1,3.5,3.3,3.5c1.5,0,2.5-0.7,2.8-2.1H148.6z M146.9,70.5c-0.1-1.7-1.4-3-3.1-3c-1.8,0-2.9,1.4-3.1,3H146.9z"/>
	<path class="st2" d="M159.9,76c0,3.5-1.6,5.3-5,5.3c-2,0-4.3-0.8-4.4-3.2h1.8c0.1,1.3,1.6,1.7,2.8,1.7c2.3,0,3.2-1.7,3.2-4.1v-0.7
		h0c-0.6,1.3-2,2-3.3,2c-3.2,0-4.8-2.5-4.8-5.4c0-2.5,1.2-5.7,5-5.7c1.4,0,2.6,0.6,3.2,1.8h0v-1.5h1.7V76z M158.1,71.3
		c0-1.9-0.8-3.8-3.1-3.8c-2.3,0-3.2,1.8-3.2,3.9c0,1.9,0.7,4.1,3,4.1C157.2,75.5,158.1,73.3,158.1,71.3z"/>
	<path class="st2" d="M164.4,64.2h-1.8v-2.2h1.8V64.2z M162.6,66.2h1.8v10.7h-1.8V66.2z"/>
	<path class="st2" d="M168.2,73.5c0.1,1.6,1.4,2.1,2.9,2.1c1.1,0,2.6-0.2,2.6-1.6c0-1.4-1.7-1.6-3.5-2c-1.7-0.4-3.5-1-3.5-3
		c0-2.2,2.1-3.1,4-3.1c2.4,0,4.3,0.7,4.4,3.4h-1.8c-0.1-1.4-1.3-1.8-2.5-1.8c-1.1,0-2.3,0.3-2.3,1.4c0,1.3,1.9,1.5,3.5,1.9
		c1.8,0.4,3.5,1,3.5,3.1c0,2.6-2.4,3.4-4.6,3.4c-2.4,0-4.4-1-4.5-3.6H168.2z"/>
	<path class="st2" d="M180,66.2h2.1v1.6H180v6.7c0,0.8,0.2,1,1.3,1h0.8v1.6h-1.4c-1.8,0-2.6-0.4-2.6-2.3v-6.8h-1.8v-1.6h1.8V63h1.8
		V66.2z"/>
	<path class="st2" d="M184,66.2h1.7v2.3h0c0.9-1.7,2-2.6,3.9-2.5v1.9c-2.8,0-3.9,1.6-3.9,4.3v4.8H184V66.2z"/>
	<path class="st2" d="M195.2,78.3c-0.8,2.1-1.5,2.9-3.1,2.9c-0.4,0-0.8,0-1.2-0.2v-1.6c0.3,0.1,0.7,0.2,1,0.2c0.7,0,1.1-0.4,1.5-1
		l0.7-1.8l-4.3-10.7h2l3.1,8.8h0l3-8.8h1.9L195.2,78.3z"/>
</g>
</svg>
