<?xml version="1.0" encoding="utf-8"?>
<!-- Generator: Adobe Illustrator 19.2.1, SVG Export Plug-In . SVG Version: 6.00 Build 0)  -->
<!DOCTYPE svg PUBLIC "-//W3C//DTD SVG 1.1//EN" "http://www.w3.org/Graphics/SVG/1.1/DTD/svg11.dtd">
<svg version="1.1" id="Layer_1" xmlns="http://www.w3.org/2000/svg" xmlns:xlink="http://www.w3.org/1999/xlink" x="0px" y="0px"
	 viewBox="0 0 200 83.1" style="enable-background:new 0 0 200 83.1;" xml:space="preserve">
<style type="text/css">
	.st0{fill:#3EB1C8;}
	.st1{fill:#D8D2C4;}
	.st2{fill:#4F5858;}
	.st3{fill:#FFC72C;}
	.st4{fill:#EF3340;}
</style>
<polygon class="st0" points="0,67.9 0,47.4 16.8,41.9 46.5,52.1 "/>
<polygon class="st1" points="29.7,26.2 0,36.4 16.8,41.9 46.5,31.7 "/>
<polygon class="st2" points="16.8,41.9 46.5,31.7 46.5,52.1 "/>
<polygon class="st3" points="46.5,0.2 46.5,20.6 29.7,26.2 0,15.9 "/>
<polygon class="st4" points="29.7,26.2 0,36.4 0,15.9 "/>
<g>
	<g>
		<g>
			<g>
				<path class="st2" d="M76.1,37.5c-0.4-2.6-2.9-4.6-5.8-4.6c-5.2,0-7.2,4.4-7.2,9.1c0,4.4,2,8.8,7.2,8.8c3.6,0,5.6-2.4,6-5.9h5.6
					c-0.6,6.6-5.1,10.8-11.6,10.8c-8.2,0-13-6.1-13-13.7c0-7.8,4.8-14,13-14c5.8,0,10.7,3.4,11.4,9.5H76.1z"/>
				<path class="st2" d="M84,35.9h5v3.6H89c1-2.4,3.6-4.1,6.1-4.1c0.4,0,0.8,0.1,1.1,0.2v4.9c-0.5-0.1-1.3-0.2-1.9-0.2
					c-3.8,0-5.2,2.8-5.2,6.1v8.6H84V35.9z"/>
				<path class="st2" d="M106.3,35.4c6,0,9.9,4,9.9,10.1c0,6.1-3.9,10.1-9.9,10.1c-6,0-9.9-4-9.9-10.1
					C96.4,39.4,100.3,35.4,106.3,35.4z M106.3,51.6c3.6,0,4.7-3.1,4.7-6.1c0-3.1-1.1-6.1-4.7-6.1c-3.6,0-4.6,3.1-4.6,6.1
					C101.7,48.6,102.7,51.6,106.3,51.6z"/>
				<path class="st2" d="M122.3,48.9c0,2.3,2,3.2,4,3.2c1.5,0,3.4-0.6,3.4-2.4c0-1.6-2.2-2.1-6-3c-3-0.7-6.1-1.7-6.1-5.1
					c0-4.9,4.2-6.1,8.3-6.1c4.2,0,8,1.4,8.4,6.1h-5c-0.1-2-1.7-2.6-3.6-2.6c-1.2,0-2.9,0.2-2.9,1.8c0,1.9,3,2.1,6,2.9
					c3.1,0.7,6.1,1.8,6.1,5.4c0,5-4.4,6.7-8.7,6.7c-4.4,0-8.8-1.7-9-6.7H122.3z"/>
				<path class="st2" d="M141.5,48.9c0,2.3,2,3.2,4,3.2c1.5,0,3.4-0.6,3.4-2.4c0-1.6-2.2-2.1-6-3c-3-0.7-6.1-1.7-6.1-5.1
					c0-4.9,4.2-6.1,8.3-6.1c4.2,0,8,1.4,8.4,6.1h-5c-0.1-2-1.7-2.6-3.6-2.6c-1.2,0-2.9,0.2-2.9,1.8c0,1.9,3,2.1,6,2.9
					c3.1,0.7,6.1,1.8,6.1,5.4c0,5-4.4,6.7-8.7,6.7c-4.4,0-8.8-1.7-9-6.7H141.5z"/>
				<path class="st2" d="M156,35.9h5v3.6h0.1c1-2.4,3.6-4.1,6.1-4.1c0.4,0,0.8,0.1,1.1,0.2v4.9c-0.5-0.1-1.3-0.2-1.9-0.2
					c-3.8,0-5.2,2.8-5.2,6.1v8.6H156V35.9z"/>
				<path class="st2" d="M174,46.8c0.1,3.3,1.8,4.8,4.7,4.8c2.1,0,3.8-1.3,4.1-2.5h4.6c-1.5,4.5-4.6,6.4-9,6.4
					c-6,0-9.8-4.1-9.8-10.1c0-5.7,4-10.1,9.8-10.1c6.5,0,9.7,5.5,9.3,11.4H174z M182.6,43.5c-0.5-2.7-1.6-4.1-4.2-4.1
					c-3.3,0-4.3,2.6-4.4,4.1H182.6z"/>
				<path class="st2" d="M190.7,39.5h-3.1v-3.5h3.1v-1.5c0-3.4,2.1-5.8,6.4-5.8c0.9,0,1.9,0.1,2.8,0.1v3.9c-0.6-0.1-1.3-0.1-1.9-0.1
					c-1.4,0-2,0.6-2,2.2v1.1h3.6v3.5H196v15.6h-5.3V39.5z"/>
			</g>
		</g>
	</g>
</g>
<g>
	<path class="st2" d="M58.4,66.8h11.1v1.8h-8.9v5.1h8.3v1.8h-8.3V81h9v1.8H58.4V66.8z"/>
	<path class="st2" d="M77,82.8h-2l-4.3-11.6h2.1l3.3,9.7h0l3.2-9.7h2L77,82.8z"/>
	<path class="st2" d="M92.1,79.1c-0.5,2.6-2.4,3.9-5,3.9c-3.7,0-5.5-2.6-5.6-6.1c0-3.5,2.3-6,5.5-6c4.1,0,5.4,3.8,5.2,6.6h-8.7
		c-0.1,2,1.1,3.8,3.6,3.8c1.6,0,2.7-0.8,3-2.3H92.1z M90.3,75.9c-0.1-1.8-1.5-3.3-3.3-3.3c-2,0-3.2,1.5-3.3,3.3H90.3z"/>
	<path class="st2" d="M94.3,71.2h1.8V73h0c0.8-1.4,2.1-2.1,3.8-2.1c3.1,0,4,1.7,4,4.2v7.6H102v-7.9c0-1.4-0.9-2.3-2.4-2.3
		c-2.3,0-3.4,1.5-3.4,3.6v6.6h-1.9V71.2z"/>
	<path class="st2" d="M108.8,71.2h2.3v1.7h-2.3v7.2c0,0.9,0.2,1,1.4,1h0.9v1.7h-1.5c-2,0-2.8-0.4-2.8-2.5v-7.4h-2v-1.7h2v-3.5h1.9
		V71.2z"/>
	<path class="st2" d="M120.2,66.8h5.5c4.9,0,7.7,2.5,7.7,7.6c0,5.4-2.4,8.4-7.7,8.4h-5.5V66.8z M122.4,81h3.5c1.5,0,5.4-0.4,5.4-6.3
		c0-3.8-1.4-6.1-5.3-6.1h-3.6V81z"/>
	<path class="st2" d="M145.7,82.8c-0.3,0.2-0.8,0.3-1.4,0.3c-1,0-1.6-0.5-1.6-1.8c-1.1,1.2-2.5,1.8-4.1,1.8c-2.1,0-3.8-0.9-3.8-3.3
		c0-2.6,2-3.2,3.9-3.6c2.1-0.4,3.9-0.3,3.9-1.7c0-1.7-1.4-1.9-2.6-1.9c-1.6,0-2.8,0.5-2.9,2.2h-1.9c0.1-2.9,2.3-3.9,4.9-3.9
		c2.1,0,4.4,0.5,4.4,3.2v6c0,0.9,0,1.3,0.6,1.3c0.2,0,0.3,0,0.6-0.1V82.8z M142.6,76.8c-0.7,0.5-2.2,0.6-3.5,0.8
		c-1.3,0.2-2.3,0.7-2.3,2.1c0,1.3,1.1,1.7,2.2,1.7c2.5,0,3.5-1.6,3.5-2.6V76.8z"/>
	<path class="st2" d="M150.1,71.2h2.3v1.7h-2.3v7.2c0,0.9,0.2,1,1.4,1h0.9v1.7h-1.5c-2,0-2.8-0.4-2.8-2.5v-7.4h-2v-1.7h2v-3.5h1.9
		V71.2z"/>
	<path class="st2" d="M164.5,82.8c-0.3,0.2-0.8,0.3-1.4,0.3c-1,0-1.6-0.5-1.6-1.8c-1.1,1.2-2.5,1.8-4.1,1.8c-2.1,0-3.8-0.9-3.8-3.3
		c0-2.6,2-3.2,3.9-3.6c2.1-0.4,3.9-0.3,3.9-1.7c0-1.7-1.4-1.9-2.6-1.9c-1.6,0-2.8,0.5-2.9,2.2h-1.9c0.1-2.9,2.3-3.9,4.9-3.9
		c2.1,0,4.4,0.5,4.4,3.2v6c0,0.9,0,1.3,0.6,1.3c0.2,0,0.3,0,0.6-0.1V82.8z M161.4,76.8c-0.7,0.5-2.2,0.6-3.5,0.8
		c-1.3,0.2-2.3,0.7-2.3,2.1c0,1.3,1.1,1.7,2.2,1.7c2.5,0,3.5-1.6,3.5-2.6V76.8z"/>
</g>
</svg>
