<?xml version="1.0" encoding="UTF-8"?>
<!DOCTYPE svg PUBLIC "-//W3C//DTD SVG 1.1//EN" "http://www.w3.org/Graphics/SVG/1.1/DTD/svg11.dtd">
<svg version="1.1" xmlns="http://www.w3.org/2000/svg" xmlns:xlink="http://www.w3.org/1999/xlink" x="0" y="0" width="577.239" height="175.811" viewBox="0, 0, 577.239, 175.811">
  <g id="Layer_1" transform="translate(-137.506, -191.844)">
    <g>
      <path d="M217.605,284.966 L273.091,284.966 L273.091,347.361 C265.606,353.838 256.862,358.841 246.859,362.366 C236.854,365.891 225.449,367.656 212.64,367.656 C200.836,367.656 190.293,365.82 181.01,362.15 C171.726,358.48 163.846,353.335 157.369,346.713 C150.892,340.095 145.96,332.177 142.58,322.964 C139.196,313.755 137.506,303.607 137.506,292.522 C137.506,281.727 139.304,271.725 142.904,262.512 C146.5,253.302 151.61,245.277 158.232,238.439 C164.852,231.604 172.698,226.241 181.765,222.354 C190.834,218.468 200.907,216.525 211.992,216.525 C225.087,216.525 236.567,218.937 246.428,223.758 C256.285,228.582 264.455,235.308 270.932,243.945 L248.911,264.887 C244.303,259.418 239.229,254.956 233.69,251.501 C228.147,248.047 221.347,246.319 213.287,246.319 C206.665,246.319 200.765,247.544 195.583,249.99 C190.401,252.439 186.01,255.749 182.414,259.921 C178.814,264.098 176.078,268.989 174.209,274.602 C172.337,280.216 171.403,286.19 171.403,292.522 C171.403,299.431 172.482,305.692 174.641,311.306 C176.8,316.919 179.823,321.706 183.709,325.663 C187.595,329.623 192.162,332.68 197.419,334.839 C202.671,336.997 208.392,338.077 214.583,338.077 C220.338,338.077 225.593,337.396 230.343,336.026 C235.093,334.66 239.337,332.464 243.082,329.441 L243.082,311.306 L217.605,311.306 z" fill="#000000"/>
      <path d="M342.394,285.181 C348.439,285.181 353.189,283.384 356.643,279.784 C360.097,276.188 361.825,271.654 361.825,266.182 C361.825,260.281 360.097,255.603 356.643,252.148 C353.189,248.693 348.439,246.967 342.394,246.967 L322.316,246.967 L322.316,285.181 z M290.578,220.195 L344.122,220.195 C352.466,220.195 359.808,221.383 366.142,223.758 C372.475,226.133 377.764,229.37 382.012,233.473 C386.255,237.576 389.423,242.363 391.511,247.831 C393.596,253.303 394.642,259.132 394.642,265.319 C394.642,274.676 392.591,282.844 388.488,289.824 C384.387,296.806 378.591,302.383 371.108,306.556 L403.062,364.201 L367.223,364.201 L340.45,311.306 L322.316,311.306 L322.316,364.201 L290.578,364.201 z" fill="#000000"/>
      <path d="M410.833,220.195 L443.434,220.195 L443.434,364.2 L410.833,364.2 z" fill="#000000"/>
      <path d="M513.168,335.27 C527.559,335.27 538.644,331.492 546.417,323.935 C554.189,316.378 558.075,305.982 558.075,292.737 C558.075,286.119 557.174,280.107 555.377,274.71 C553.575,269.312 550.842,264.708 547.173,260.892 C543.503,257.08 538.86,254.128 533.246,252.041 C527.633,249.956 520.941,248.91 513.168,248.91 L493.305,248.91 L493.305,335.27 z M460.704,220.195 L515.112,220.195 C526.193,220.195 536.448,221.636 545.876,224.513 C555.303,227.394 563.436,231.783 570.273,237.683 C577.109,243.587 582.436,251.143 586.25,260.353 C590.062,269.566 591.972,280.431 591.972,292.953 C591.972,304.902 590.029,315.3 586.143,324.151 C582.256,333.003 576.893,340.418 570.058,346.389 C563.22,352.364 555.087,356.826 545.661,359.775 C536.233,362.726 525.978,364.201 514.896,364.201 L460.704,364.201 z" fill="#000000"/>
      <path d="M700.593,289.041 L700.593,273.319 L713.533,281.181 z" fill="#CC0033"/>
      <path d="M683.83,299.229 L683.83,283.521 L696.765,291.374 z" fill="#CC0033"/>
      <path d="M667.068,309.402 L667.068,293.685 L680.009,301.547 z" fill="#CC0033"/>
      <path d="M664.449,309.402 L651.507,301.54 L664.449,293.678 z" fill="#6F6F6F"/>
      <path d="M647.686,283.521 L647.686,299.229 L634.753,291.374 z" fill="#6F6F6F"/>
      <path d="M630.93,273.326 L630.93,289.048 L617.99,281.188 z" fill="#6F6F6F"/>
      <path d="M630.93,212.22 L630.93,227.942 L617.99,220.08 z" fill="#C6C6C6"/>
      <path d="M647.686,202.032 L647.686,217.74 L634.753,209.887 z" fill="#C6C6C6"/>
      <path d="M664.449,191.845 L664.449,207.569 L651.507,199.707 z" fill="#C6C6C6"/>
      <path d="M680.009,199.706 L667.067,207.568 L667.067,191.844 L667.06,191.844 z" fill="#C6C6C6"/>
      <path d="M683.83,217.754 L683.83,202.039 L696.77,209.899 z" fill="#C6C6C6"/>
      <path d="M701.803,250.641 L714.745,242.779 L714.745,258.496 L714.214,258.176 z" fill="#CC0033"/>
      <path d="M697.982,273.326 L697.982,289.048 L685.04,281.188 z" fill="#CC0033"/>
      <path d="M681.212,299.222 L668.277,291.367 L681.212,283.514 z" fill="#CC0033"/>
      <path d="M650.305,283.514 L663.24,291.367 L650.305,299.222 z" fill="#6F6F6F"/>
      <path d="M633.542,273.326 L646.484,281.188 L633.542,289.048 z" fill="#6F6F6F"/>
      <path d="M616.779,258.501 L616.779,242.786 L629.721,250.648 L627.877,251.769 z" fill="#6F6F6F"/>
      <path d="M633.542,212.22 L646.484,220.08 L633.542,227.942 z" fill="#C6C6C6"/>
      <path d="M685.04,260.827 L685.524,260.535 L697.982,252.974 L697.982,268.689 z" fill="#CC0033"/>
      <path d="M630.93,248.315 L617.99,240.453 L630.93,232.593 z" fill="#6F6F6F"/>
      <path d="M650.305,217.754 L650.305,202.046 L663.24,209.899 z" fill="#C6C6C6"/>
      <path d="M680.009,220.08 L667.067,227.942 L667.067,212.225 L677.398,218.503 z" fill="#C6C6C6"/>
      <path d="M681.219,217.761 L676.813,215.082 L668.277,209.899 L681.219,202.039 z" fill="#C6C6C6"/>
      <path d="M700.593,232.593 L713.533,240.453 L700.593,248.315 z" fill="#CC0033"/>
      <path d="M683.83,258.501 L683.83,242.786 L696.77,250.648 L684.354,258.182 z" fill="#CC0033"/>
      <path d="M683.83,263.146 L696.77,271.008 L683.83,278.87 z" fill="#CC0033"/>
      <path d="M681.219,278.862 L668.277,271 L681.219,263.14 z" fill="#CC0033"/>
      <path d="M647.686,263.146 L647.686,278.856 L634.753,271.001 z" fill="#6F6F6F"/>
      <path d="M633.542,252.967 L641.75,257.951 L646.491,260.827 L633.549,268.689 L633.549,252.967 z" fill="#6F6F6F"/>
      <path d="M633.542,232.593 L646.484,240.453 L633.542,248.315 z" fill="#6F6F6F"/>
      <path d="M664.449,227.942 L651.507,220.08 L664.449,212.22 z" fill="#C6C6C6"/>
      <path d="M685.04,240.453 L697.982,232.593 L697.982,248.308 z" fill="#CC0033"/>
      <path d="M681.219,258.489 L673.147,253.585 L668.277,250.627 L676.813,245.445 L681.219,242.765 z" fill="#CC0033"/>
      <path d="M650.305,263.146 L663.24,271.001 L650.305,278.856 z" fill="#6F6F6F"/>
      <path d="M634.753,250.641 L647.686,242.786 L647.686,258.496 L637.282,252.178 z" fill="#6F6F6F"/>
      <path d="M650.305,238.128 L650.305,222.419 L663.24,230.275 z" fill="#C6C6C6"/>
      <path d="M634.753,230.274 L647.686,222.419 L647.686,238.127 L646.647,237.495 z" fill="#C6C6C6"/>
      <path d="M664.449,289.041 L651.507,281.181 L664.449,273.319 z" fill="#6F6F6F"/>
      <path d="M680.009,281.181 L667.067,289.041 L667.067,273.319 z" fill="#CC0033"/>
      <path d="M622.839,257.876 L630.931,252.967 L630.931,268.682 L617.991,260.82 z" fill="#6F6F6F"/>
      <path d="M713.533,260.827 L700.593,268.689 L700.593,252.967 L713.051,260.529 z" fill="#CC0033"/>
      <path d="M618.805,236.904 L616.772,238.135 L616.772,222.413 L629.713,230.275 z" fill="#6F6F6F"/>
      <path d="M629.72,271 L616.779,278.862 L616.779,263.145 z" fill="#6F6F6F"/>
      <path d="M714.745,263.146 L714.745,278.863 L701.803,271.001 z" fill="#CC0033"/>
    </g>
  </g>
</svg>