<?xml version="1.0" encoding="UTF-8"?>
<svg id="Layer_1" data-name="Layer 1" xmlns="http://www.w3.org/2000/svg" viewBox="0 0 450 126">
  <defs>
    <style>
      .cls-1 {
        fill: #fff;
      }

      .cls-2 {
        fill: #e8e8e8;
      }

      .cls-3 {
        fill: #9c9c9c;
      }
    </style>
  </defs>
  <path class="cls-1" d="m450,126H0C0,84,0,42,0,0c150,0,300,0,450,0v126ZM60.83,60.6c-.38-.16-.62-.22-.82-.34-3.37-1.95-6.79-3.83-10.09-5.9-1.02-.64-1.68-.49-2.57.03-6.99,4.07-13.99,8.11-20.98,12.16-5.7,3.3-11.41,6.61-17.1,9.93-.6.35-1.19.63-1.18,1.55.03,4.92.03,9.84-.04,14.75-.02,1.2.42,1.87,1.44,2.45,12.34,6.98,24.68,13.96,36.97,21.02,1.69.97,2.96.98,4.65-.04,11.91-7.14,23.88-14.2,35.87-21.21,1.2-.7,1.52-1.5,1.52-2.78-.04-19.63-.04-39.27,0-58.9,0-1.28-.37-2.03-1.49-2.67-12.17-6.95-24.32-13.93-36.44-20.96-1.35-.79-2.44-.78-3.79,0-7.01,4.02-14.07,7.96-21.11,11.94-5.49,3.1-10.98,6.19-16.44,9.32-.47.27-1.08.85-1.09,1.3-.08,4.67-.04,9.34-.05,14.01,0,.84.39,1.34,1.13,1.74,3.97,2.16,7.92,4.35,11.84,6.6.71.41,1.19.42,1.9.01,8.29-4.7,16.61-9.38,24.94-14.01.41-.23,1.17-.24,1.56-.01,3.59,2.08,7.14,4.22,10.67,6.39.33.2.68.68.68,1.04.05,4.13.03,8.26.03,12.6Zm85.85,7c0,4.67,0,9.34,0,14.01,0,.08,0,.17,0,.25.08,6.09,3.31,10.88,8.65,12.8,2.74.98,5.58,1.28,8.47.99,4.81-.48,8.94-2.21,11.49-6.59,1.59-2.73,1.99-5.76,2-8.84.03-7.81.03-15.62,0-23.43,0-1.53-.07-3.06-.2-4.58-.53-6.03-4.16-10.47-9.97-11.87-2.11-.51-4.36-.65-6.54-.62-8.36.13-13.9,5.83-13.91,14.12,0,4.59,0,9.17,0,13.76Zm181.6,14.44s0,0,0,.01c2.87,0,5.74.09,8.6-.04,1.48-.07,2.06.38,2.45,1.82.9,3.34,2.02,6.63,3.11,9.92.51,1.54,1.51,1.85,2.89,1.1,1.13-.61.94-1.48.64-2.45-3.69-11.98-7.37-23.97-11.06-35.95-1.57-5.08-3.16-10.16-4.78-15.23-.55-1.74-2.01-2.55-3.4-1.71-.67.41-1.15,1.36-1.41,2.17-2.43,7.67-4.79,15.36-7.17,23.04-2.89,9.34-5.78,18.68-8.66,28.03-.44,1.43-.01,2.1,1.42,2.44,1.17.28,1.9-.2,2.33-1.63,1.02-3.4,2.05-6.79,3.02-10.21.24-.86.53-1.36,1.56-1.34,3.49.05,6.98.02,10.47.02Zm-132.79,8.2c1.64,2.13,3.37,3.65,5.57,4.54,9.13,3.71,17.51-3.92,18.17-11.34.36-4.05.36-8.19,0-12.24-.51-5.76-3.85-9.73-9.31-11.56-5.23-1.75-10-.66-13.73,3.93-.19.24-.25.58-.37.87-.16-.12-.32-.24-.48-.37,0-1.02.04-2.04-.01-3.06-.06-1.25-1.03-1.93-2.24-1.61-1.15.3-1.51,1.08-1.51,2.23.02,13.05,0,26.11,0,39.16,0,3.35,0,6.69.03,10.04.02,1.46.73,2.24,1.92,2.25,1.32,0,1.96-.75,1.96-2.3,0-5.37,0-10.74-.01-16.11,0-1.35,0-2.7,0-4.42Zm193.83-11.76v-.09c3.2,0,6.4.07,9.6-.02,2.5-.07,3.88-1.44,4.21-3.89,1.14-8.33-5.46-15.7-13.92-15.55-7.09.13-12.98,5.01-13.77,12.03-.47,4.16-.35,8.43-.01,12.61.45,5.48,3.82,9.03,8.85,10.96,4.33,1.66,8.8,1.74,13.17.2,1.55-.55,2.92-1.66,4.27-2.64.68-.49.65-1.31.1-1.99-.54-.67-1.2-1.03-2.07-.66-.27.11-.54.24-.76.42-3.2,2.62-6.92,2.87-10.74,2.14-4.37-.83-7.75-3.04-8.9-7.59-.39-1.53-.26-3.2-.39-4.8-.07-.85.25-1.16,1.14-1.15,3.08.05,6.15.02,9.23.02Zm-144.24-.05s0-.02,0-.03c3.12,0,6.23.07,9.35-.02,2.8-.08,4.3-1.64,4.5-4.44.58-8.09-5.17-14.58-13.3-15-7.08-.37-13.92,5.06-14.49,11.94-.36,4.34-.14,8.75.08,13.12.17,3.35,1.98,5.99,4.58,8.06,3.95,3.17,8.54,4.05,13.47,3.56,2.9-.29,5.63-1.07,7.82-3.12.74-.7,1.2-1.52.38-2.49-.72-.85-1.65-1.01-2.64-.21-3.33,2.68-7.13,2.9-11.1,2.19-4.73-.85-7.99-3.87-8.86-8.24-.26-1.32-.18-2.71-.3-4.07-.09-1,.32-1.27,1.29-1.26,3.07.05,6.15.02,9.22.02Zm29.84-14.15c-.09-.07-.18-.15-.27-.22,0-.94.02-1.87,0-2.81-.03-1.33-.62-1.88-1.94-1.85-1.22.03-1.76.73-1.75,2.34.07,10.37.14,20.74.21,31.1,0,.25.02.5.03.74.01,1.05.51,1.62,1.59,1.64,1.09.02,1.8-.61,1.88-1.71.05-.74.04-1.49.04-2.23,0-6.12-.05-12.23-.01-18.35.03-4.72,2.51-8.42,6.51-9.92,6.27-2.34,13.45,2.61,13.58,9.5.13,6.86.11,13.72.02,20.58-.03,1.94,1.78,2.44,2.86,1.91.92-.46.91-1.29.91-2.13-.01-6.65-.06-13.31-.02-19.96.02-3.46-1.07-6.46-3.25-9.13-4.77-5.85-14.78-7.09-19.92-.21-.17.23-.32.47-.48.7Zm150.35,15.99c.32.41.59.71.81,1.04,1.26,1.9,2.5,3.8,3.75,5.7,1.66,2.52,3.3,5.05,4.99,7.56.43.64.88,1.31,1.9,1.03,1.56-.44,2-1.53,1.01-3.07-3.08-4.8-6.18-9.59-9.36-14.33-.55-.82-.51-1.29,0-2.04,2.93-4.36,5.81-8.75,8.69-13.14.4-.62.78-1.28,1.01-1.97.29-.85-.02-1.5-.93-1.86-1-.39-1.66-.08-2.22.76-2.8,4.2-5.61,8.39-8.42,12.57-.35.52-.77.99-1.17,1.5-3.14-4.75-6.17-9.33-9.22-13.91-.83-1.25-1.68-1.43-2.8-.66-1.14.78-1.21,1.17-.29,2.55,3.2,4.82,6.43,9.63,9.61,14.46.2.31.2.95.02,1.27-.68,1.18-1.49,2.28-2.24,3.42-2.57,3.9-5.1,7.83-7.7,11.71-.69,1.03-.46,1.74.46,2.4,1.02.73,1.89.63,2.69-.4.41-.52.74-1.09,1.1-1.65,2.75-4.27,5.49-8.53,8.32-12.94Zm-63.64-14.16s-.05,0-.07,0c0-8.88,0-17.76,0-26.64,0-1.96-.94-2.66-2.69-2.11-1.3.4-1,1.49-1,2.37-.03,16.73-.03,33.46-.04,50.19,0,.99,0,1.98,0,2.97,0,1.59.61,2.33,1.91,2.33,1.29,0,1.87-.71,1.9-2.35,0-.12,0-.25,0-.37,0-8.8,0-17.6,0-26.4Zm-241.82,51.83c.99.3,1.28-.07,1.22-.89-.04-.54-.05-1.07-.05-1.61,0-20.87,0-41.74,0-62.61,0-14.22,0-28.43,0-42.65,0-1.25-.01-1.25-1.19-1.1v108.86Z"/>
  <path d="m60.83,60.6c0-4.34.02-8.47-.03-12.6,0-.35-.35-.84-.68-1.04-3.53-2.17-7.08-4.31-10.67-6.39-.39-.23-1.15-.21-1.56.01-8.33,4.64-16.64,9.31-24.94,14.01-.71.4-1.19.39-1.9-.01-3.92-2.24-7.88-4.43-11.84-6.6-.74-.41-1.13-.9-1.13-1.74,0-4.67-.03-9.34.05-14.01,0-.45.62-1.03,1.09-1.3,5.47-3.14,10.96-6.23,16.44-9.32,7.04-3.97,14.1-7.91,21.11-11.94,1.35-.77,2.43-.78,3.79,0,12.12,7.03,24.27,14.01,36.44,20.96,1.13.64,1.49,1.39,1.49,2.67-.04,19.63-.03,39.27,0,58.9,0,1.29-.32,2.08-1.52,2.78-11.99,7.02-23.95,14.07-35.87,21.21-1.69,1.01-2.96,1.01-4.65.04-12.29-7.06-24.63-14.05-36.97-21.02-1.02-.58-1.46-1.25-1.44-2.45.07-4.92.08-9.84.04-14.75,0-.92.59-1.21,1.18-1.55,5.7-3.32,11.4-6.62,17.1-9.93,7-4.05,14-8.09,20.98-12.16.89-.52,1.55-.67,2.57-.03,3.3,2.07,6.71,3.95,10.09,5.9.2.12.43.18.82.34Zm-.05,2.61c-.57-.23-1.14-.38-1.63-.66-3.02-1.73-6.06-3.43-9.02-5.26-1.05-.65-1.84-.56-2.84.03-9.74,5.68-19.51,11.33-29.26,16.98-2.25,1.3-4.49,2.6-6.76,3.92.13.14.17.22.24.26,12.09,6.84,24.17,13.67,36.25,20.53.66.37,1.16.42,1.82.02,7.39-4.52,14.8-9.01,22.21-13.51.62-.38.76-.74.02-1.16-3.09-1.78-6.17-3.58-9.24-5.38-.79-.46-1.49-.46-2.31.04-3.45,2.07-6.95,4.05-10.41,6.1-.73.43-1.3.45-2.05.03-3.91-2.19-7.85-4.31-11.77-6.47-.52-.29-.97-.69-1.59-1.15.52-.38.82-.66,1.17-.85,4.04-2.21,8.09-4.39,12.12-6.61.79-.43,1.44-.38,2.21.06,3.11,1.82,6.25,3.6,9.39,5.38.45.25.92.45,1.49.73v-13.02Zm25.13-29.21c-.43.17-.71.24-.95.37-2.86,1.5-5.68,3.09-8.6,4.48-1.22.58-1.5,1.31-1.5,2.57.04,14.18.01,28.35.02,42.53,0,.79-.12,1.41-.89,1.87-7.8,4.72-15.58,9.48-23.38,14.19-.91.55-1.18,1.21-1.16,2.23.07,3.43.03,6.85.05,10.28,0,.41.08.83.14,1.37.38-.18.57-.25.74-.36,11.53-6.81,23.05-13.64,34.59-20.43.8-.47,1.03-1.02,1.03-1.9-.02-18.6-.01-37.19-.02-55.79,0-.43-.05-.86-.08-1.42Zm-74.72-1.33c.35.21.66.41.98.59,2.77,1.5,5.58,2.93,8.3,4.51,1.07.62,1.86.62,2.94.02,7.98-4.41,16-8.74,24-13.12.93-.51,1.67-.56,2.64,0,7.66,4.47,15.36,8.87,23.03,13.33.65.38,1.15.44,1.82.06,1.33-.75,2.72-1.42,4.07-2.13,2.04-1.07,4.08-2.15,6.3-3.31-.8-.49-1.45-.91-2.12-1.3-11.16-6.45-22.32-12.89-33.47-19.37-.72-.42-1.24-.36-1.93.03-6.01,3.44-12.03,6.85-18.06,10.26-6.13,3.47-12.27,6.91-18.49,10.42Zm62.05,51.01c.08-.4.13-.52.13-.64-.01-13.77-.07-27.53.02-41.3.01-1.66-.59-2.39-1.9-3.14-6.91-3.94-13.78-7.97-20.67-11.96-.41-.24-.87-.39-1.43-.65,0,3.82-.01,7.45.02,11.08,0,.29.28.69.55.85,3.73,2.25,7.45,4.5,11.23,6.67,1.55.89,2.21,2.07,2.18,3.83-.06,3.72-.02,7.44-.01,11.16,0,1.13-.02,2.22-1,3.06-.24.21-.25.76-.26,1.15,0,4.09.03,8.18,0,12.28,0,.82.27,1.28.96,1.67,2.13,1.2,4.23,2.46,6.34,3.69,1.24.72,2.48,1.44,3.85,2.24Zm-62.44-4.19c-.08.3-.18.49-.18.68-.03,3.92-.09,7.85,0,11.77.01.54.58,1.27,1.09,1.57,11.25,6.46,22.52,12.87,33.8,19.28.77.44,1.56.83,2.42,1.29.08-.36.17-.56.17-.75.01-3.92.05-7.85-.02-11.77,0-.47-.53-1.1-.98-1.36-5.55-3.22-11.14-6.39-16.72-9.57-6.47-3.69-12.95-7.37-19.57-11.13Zm12.06-27.98c.6-.29,1.08-.5,1.54-.75,7.59-4.27,15.17-8.53,22.74-12.84.33-.19.64-.74.65-1.13.06-3.26.05-6.53.06-9.79,0-.26-.07-.52-.13-.88-.49.23-.87.38-1.23.57-7.59,4.16-15.18,8.34-22.78,12.49-.73.4-.97.9-.96,1.68.02,3.18,0,6.36,0,9.55,0,.31.07.62.12,1.09Zm-12.07-17.53c-.07.25-.18.43-.18.62-.02,3.47-.06,6.93,0,10.4,0,.45.45,1.07.87,1.31,2.93,1.71,5.91,3.34,8.88,4.99.23.13.5.16.92.3,0-3.07-.2-6,.06-8.9.21-2.32-.65-3.49-2.67-4.43-2.68-1.25-5.22-2.81-7.89-4.28Zm38.67,37.4v12.37c3.62-2.09,7.05-4.06,10.74-6.19-3.74-2.15-7.12-4.1-10.74-6.18Zm-1.7.23c-3.65,1.99-7.15,3.89-10.91,5.93,3.74,2.02,7.26,3.93,10.91,5.91v-11.84Z"/>
  <path d="m146.67,67.6c0-4.59,0-9.17,0-13.76,0-8.29,5.55-13.99,13.91-14.12,2.18-.03,4.43.11,6.54.62,5.81,1.4,9.44,5.84,9.97,11.87.13,1.52.2,3.05.2,4.58.02,7.81.02,15.62,0,23.43-.01,3.08-.41,6.11-2,8.84-2.55,4.38-6.68,6.11-11.49,6.59-2.88.29-5.72,0-8.47-.99-5.34-1.91-8.58-6.71-8.65-12.8,0-.08,0-.17,0-.25,0-4.67,0-9.34,0-14.01Zm3.7.03s0,0,0,0c0,4.71-.16,9.42.04,14.12.25,5.88,3.44,9.39,9.25,10.16,6.75.89,13.2-1.7,13.72-10.36.21-3.54.19-7.1.18-10.65-.02-5.82-.01-11.65-.24-17.46-.19-5.08-3.04-8.54-7.75-9.69-1.47-.36-3.05-.43-4.57-.39-6.4.19-10.34,3.93-10.6,10.27-.19,4.66-.04,9.33-.04,14Z"/>
  <path d="m328.27,82.03c-3.49,0-6.98.03-10.47-.02-1.03-.02-1.32.48-1.56,1.34-.97,3.41-1.99,6.81-3.02,10.21-.43,1.42-1.16,1.91-2.33,1.63-1.43-.34-1.86-1.02-1.42-2.44,2.88-9.35,5.77-18.69,8.66-28.03,2.38-7.68,4.74-15.37,7.17-23.04.26-.81.74-1.76,1.41-2.17,1.38-.84,2.84-.03,3.4,1.71,1.61,5.07,3.21,10.14,4.78,15.23,3.7,11.98,7.37,23.97,11.06,35.95.3.97.49,1.84-.64,2.45-1.38.74-2.38.44-2.89-1.1-1.09-3.29-2.21-6.57-3.11-9.92-.39-1.44-.97-1.89-2.45-1.82-2.86.13-5.73.04-8.6.04,0,0,0,0,0-.01Zm-.29-35.36c-.13,0-.26,0-.39,0-3.26,10.56-6.52,21.12-9.8,31.72h19.83c-3.25-10.71-6.45-21.22-9.64-31.73Z"/>
  <path d="m195.48,90.23c0,1.72,0,3.07,0,4.42,0,5.37.01,10.74.01,16.11,0,1.55-.65,2.3-1.96,2.3-1.19,0-1.91-.79-1.92-2.25-.04-3.35-.03-6.69-.03-10.04,0-13.05.02-26.11,0-39.16,0-1.15.35-1.93,1.51-2.23,1.21-.32,2.18.35,2.24,1.61.05,1.02.01,2.04.01,3.06.16.12.32.24.48.37.12-.29.18-.64.37-.87,3.73-4.6,8.5-5.68,13.73-3.93,5.46,1.83,8.81,5.8,9.31,11.56.36,4.05.35,8.19,0,12.24-.66,7.42-9.04,15.06-18.17,11.34-2.2-.89-3.92-2.42-5.57-4.54Zm-.17-12.55c.05,0,.1,0,.15,0,0,1.45.13,2.9-.03,4.33-.37,3.38,1.19,5.8,3.66,7.8,3.06,2.48,6.51,3.26,10.1,1.54,3.84-1.83,6.2-4.91,6.32-9.33.08-2.93.02-5.86.09-8.79.09-3.79-1.57-6.71-4.52-8.91-5.58-4.16-13.79-1.21-15.24,5.59-.54,2.51-.38,5.16-.54,7.75Z"/>
  <path d="m389.31,78.47c-3.08,0-6.15.03-9.23-.02-.89-.01-1.21.29-1.14,1.15.13,1.6,0,3.26.39,4.8,1.15,4.55,4.54,6.76,8.9,7.59,3.83.73,7.55.48,10.74-2.14.22-.18.5-.3.76-.42.88-.38,1.54-.01,2.07.66.55.68.57,1.5-.1,1.99-1.35.98-2.72,2.1-4.27,2.64-4.37,1.54-8.85,1.46-13.17-.2-5.03-1.93-8.4-5.47-8.85-10.96-.34-4.18-.46-8.45.01-12.61.79-7.02,6.68-11.9,13.77-12.03,8.46-.15,15.06,7.22,13.92,15.55-.33,2.45-1.71,3.82-4.21,3.89-3.2.09-6.4.02-9.6.02v.09Zm-10.22-3.07c.47,0,.87,0,1.28,0,4.99,0,9.98,0,14.96,0,.62,0,1.25-.03,1.86-.12,1.94-.29,2.48-.87,2.38-2.78-.22-4.21-2.11-7.52-5.98-9.31-3.86-1.78-7.63-1.24-10.96,1.47-3.42,2.79-4.01,6.53-3.54,10.75Z"/>
  <path d="m245.07,78.42c-3.07,0-6.15.03-9.22-.02-.97-.02-1.38.26-1.29,1.26.13,1.35.04,2.74.3,4.07.87,4.37,4.13,7.4,8.86,8.24,3.97.71,7.77.49,11.1-2.19.99-.8,1.92-.64,2.64.21.82.97.36,1.8-.38,2.49-2.19,2.05-4.92,2.83-7.82,3.12-4.93.5-9.52-.39-13.47-3.56-2.6-2.08-4.41-4.72-4.58-8.06-.22-4.37-.43-8.78-.08-13.12.57-6.88,7.41-12.31,14.49-11.94,8.13.42,13.88,6.91,13.3,15-.2,2.8-1.7,4.37-4.5,4.44-3.11.09-6.23.02-9.35.02,0,.01,0,.02,0,.03Zm-10.32-3.02c5.3,0,10.53,0,15.76,0,.62,0,1.25,0,1.87-.04.33-.02.65-.12.98-.15,1.3-.15,1.9-.96,1.93-2.18.13-4.9-3.39-10.36-9.54-10.77-6.16-.42-12.21,4.42-11.01,13.15Z"/>
  <path d="m274.92,64.27c.16-.23.31-.48.48-.7,5.14-6.88,15.16-5.65,19.92.21,2.18,2.67,3.27,5.67,3.25,9.13-.04,6.65,0,13.31.02,19.96,0,.84.01,1.67-.91,2.13-1.08.53-2.88.04-2.86-1.91.09-6.86.12-13.72-.02-20.58-.13-6.89-7.32-11.84-13.58-9.5-4,1.49-6.48,5.2-6.51,9.92-.04,6.12,0,12.23.01,18.35,0,.74.01,1.49-.04,2.23-.08,1.1-.79,1.72-1.88,1.71-1.08-.02-1.58-.59-1.59-1.64,0-.25-.03-.5-.03-.74-.07-10.37-.15-20.74-.21-31.1-.01-1.61.53-2.31,1.75-2.34,1.32-.03,1.91.52,1.94,1.85.02.94,0,1.87,0,2.81.09.07.18.15.27.22Z"/>
  <path d="m425.27,80.27c-2.83,4.4-5.57,8.67-8.32,12.94-.36.56-.69,1.13-1.1,1.65-.81,1.03-1.68,1.14-2.69.4-.92-.66-1.15-1.37-.46-2.4,2.6-3.88,5.14-7.8,7.7-11.71.75-1.14,1.56-2.25,2.24-3.42.19-.32.19-.96-.02-1.27-3.18-4.84-6.4-9.64-9.61-14.46-.92-1.38-.86-1.77.29-2.55,1.12-.77,1.97-.59,2.8.66,3.05,4.58,6.08,9.17,9.22,13.91.39-.5.82-.97,1.17-1.5,2.82-4.18,5.62-8.38,8.42-12.57.56-.83,1.23-1.15,2.22-.76.91.36,1.22,1.01.93,1.86-.23.69-.61,1.36-1.01,1.97-2.88,4.39-5.77,8.78-8.69,13.14-.5.75-.55,1.22,0,2.04,3.18,4.74,6.28,9.53,9.36,14.33.99,1.54.55,2.63-1.01,3.07-1.02.29-1.47-.39-1.9-1.03-1.69-2.5-3.33-5.03-4.99-7.56-1.25-1.9-2.49-3.81-3.75-5.7-.22-.33-.49-.63-.81-1.04Z"/>
  <path d="m361.62,66.11c0,8.8,0,17.6,0,26.4,0,.12,0,.25,0,.37-.03,1.63-.61,2.35-1.9,2.35-1.3,0-1.91-.74-1.91-2.33,0-.99,0-1.98,0-2.97,0-16.73.01-33.46.04-50.19,0-.88-.3-1.97,1-2.37,1.75-.55,2.69.15,2.69,2.11.01,8.88,0,17.76,0,26.64.02,0,.05,0,.07,0Z"/>
  <path d="m119.8,117.94V9.08c1.17-.16,1.19-.16,1.19,1.1,0,14.22,0,28.43,0,42.65,0,20.87,0,41.74,0,62.61,0,.54,0,1.08.05,1.61.06.82-.23,1.19-1.22.89Z"/>
  <path class="cls-1" d="m60.78,63.21v13.02c-.57-.27-1.04-.47-1.49-.73-3.13-1.78-6.27-3.56-9.39-5.38-.76-.44-1.42-.5-2.21-.06-4.03,2.22-8.08,4.4-12.12,6.61-.35.19-.65.47-1.17.85.62.46,1.07.86,1.59,1.15,3.92,2.16,7.87,4.28,11.77,6.47.76.42,1.33.4,2.05-.03,3.46-2.05,6.96-4.03,10.41-6.1.83-.5,1.52-.5,2.31-.04,3.08,1.8,6.16,3.59,9.24,5.38.73.42.6.78-.02,1.16-7.4,4.5-14.81,8.99-22.21,13.51-.66.4-1.16.36-1.82-.02-12.08-6.86-24.17-13.69-36.25-20.53-.07-.04-.11-.12-.24-.26,2.27-1.31,4.51-2.62,6.76-3.92,9.76-5.65,19.52-11.3,29.26-16.98,1.01-.59,1.79-.68,2.84-.03,2.96,1.83,6,3.53,9.02,5.26.49.28,1.06.43,1.63.66Z"/>
  <path class="cls-3" d="m85.91,34c.03.56.08.99.08,1.42,0,18.6,0,37.19.02,55.79,0,.87-.23,1.42-1.03,1.9-11.54,6.79-23.06,13.61-34.59,20.43-.17.1-.36.18-.74.36-.06-.54-.14-.95-.14-1.37-.02-3.43.02-6.85-.05-10.28-.02-1.02.25-1.68,1.16-2.23,7.8-4.71,15.58-9.47,23.38-14.19.77-.47.89-1.08.89-1.87,0-14.18.02-28.35-.02-42.53,0-1.26.28-1.99,1.5-2.57,2.91-1.4,5.73-2.98,8.6-4.48.24-.13.52-.2.95-.37Z"/>
  <path class="cls-1" d="m11.19,32.67c6.22-3.5,12.36-6.95,18.49-10.42,6.03-3.41,12.05-6.82,18.06-10.26.69-.39,1.21-.45,1.93-.03,11.15,6.47,22.31,12.91,33.47,19.37.67.39,1.32.81,2.12,1.3-2.21,1.16-4.25,2.24-6.3,3.31-1.36.71-2.74,1.38-4.07,2.13-.66.38-1.16.32-1.82-.06-7.67-4.45-15.37-8.86-23.03-13.33-.96-.56-1.71-.51-2.64,0-7.99,4.38-16.02,8.71-24,13.12-1.08.6-1.87.6-2.94-.02-2.72-1.58-5.53-3.01-8.3-4.51-.32-.17-.62-.37-.98-.59Z"/>
  <path class="cls-2" d="m73.24,83.69c-1.37-.8-2.62-1.52-3.85-2.24-2.11-1.23-4.21-2.49-6.34-3.69-.7-.39-.97-.85-.96-1.67.04-4.09,0-8.18,0-12.28,0-.39.01-.94.26-1.15.98-.84,1.01-1.93,1-3.06,0-3.72-.05-7.44.01-11.16.03-1.76-.63-2.95-2.18-3.83-3.78-2.16-7.5-4.42-11.23-6.67-.26-.16-.54-.56-.55-.85-.04-3.63-.02-7.26-.02-11.08.56.25,1.02.41,1.43.65,6.89,3.99,13.75,8.02,20.67,11.96,1.31.75,1.91,1.48,1.9,3.14-.09,13.76-.03,27.53-.02,41.3,0,.12-.05.24-.13.64Z"/>
  <path class="cls-2" d="m10.81,79.49c6.62,3.76,13.09,7.45,19.57,11.13,5.58,3.18,11.16,6.34,16.72,9.57.45.26.97.89.98,1.36.07,3.92.03,7.85.02,11.77,0,.19-.08.39-.17.75-.86-.45-1.66-.85-2.42-1.29-11.27-6.41-22.55-12.82-33.8-19.28-.51-.29-1.08-1.03-1.09-1.57-.08-3.92-.02-7.85,0-11.77,0-.19.1-.38.18-.68Z"/>
  <path class="cls-3" d="m22.87,51.52c-.05-.47-.12-.78-.12-1.09,0-3.18.03-6.36,0-9.55,0-.79.24-1.29.96-1.68,7.6-4.15,15.19-8.32,22.78-12.49.36-.2.74-.35,1.23-.57.05.35.13.61.13.88,0,3.26,0,6.53-.06,9.79,0,.39-.31.94-.65,1.13-7.57,4.3-15.15,8.57-22.74,12.84-.46.26-.94.46-1.54.75Z"/>
  <path class="cls-2" d="m10.8,33.99c2.67,1.47,5.21,3.03,7.89,4.28,2.02.94,2.88,2.12,2.67,4.43-.26,2.89-.06,5.83-.06,8.9-.42-.13-.7-.17-.92-.3-2.97-1.65-5.95-3.28-8.88-4.99-.42-.24-.86-.86-.87-1.31-.06-3.46-.03-6.93,0-10.4,0-.19.1-.38.18-.62Z"/>
  <path class="cls-2" d="m49.47,71.39c3.62,2.08,7,4.03,10.74,6.18-3.7,2.13-7.12,4.11-10.74,6.19v-12.37Z"/>
  <path class="cls-3" d="m47.76,71.62v11.84c-3.65-1.98-7.17-3.88-10.91-5.91,3.76-2.05,7.25-3.95,10.91-5.93Z"/>
  <path class="cls-1" d="m150.38,67.62c0-4.67-.16-9.34.04-14,.26-6.34,4.2-10.07,10.6-10.27,1.52-.05,3.1.03,4.57.39,4.72,1.15,7.56,4.61,7.75,9.69.22,5.82.21,11.64.24,17.46.01,3.55.04,7.11-.18,10.65-.52,8.66-6.97,11.25-13.72,10.36-5.82-.77-9.01-4.28-9.25-10.16-.2-4.7-.04-9.41-.04-14.12,0,0,0,0,0,0Z"/>
  <path class="cls-1" d="m327.98,46.68c3.19,10.51,6.39,21.03,9.64,31.73h-19.83c3.27-10.6,6.53-21.16,9.8-31.72.13,0,.26,0,.39,0Z"/>
  <path class="cls-1" d="m195.31,77.68c.16-2.59,0-5.24.54-7.75,1.45-6.8,9.66-9.75,15.24-5.59,2.95,2.2,4.61,5.12,4.52,8.91-.07,2.93,0,5.86-.09,8.79-.12,4.42-2.48,7.5-6.32,9.33-3.59,1.71-7.05.93-10.1-1.54-2.48-2.01-4.03-4.43-3.66-7.8.16-1.43.03-2.89.03-4.33-.05,0-.1,0-.15,0Z"/>
  <path class="cls-1" d="m379.09,75.4c-.47-4.22.12-7.96,3.54-10.75,3.33-2.72,7.1-3.26,10.96-1.47,3.87,1.79,5.76,5.1,5.98,9.31.1,1.92-.44,2.49-2.38,2.78-.61.09-1.24.12-1.86.12-4.99,0-9.98,0-14.96,0-.4,0-.81,0-1.28,0Z"/>
  <path class="cls-1" d="m234.75,75.4c-1.2-8.73,4.85-13.57,11.01-13.15,6.15.42,9.67,5.87,9.54,10.77-.03,1.22-.63,2.03-1.93,2.18-.33.04-.65.14-.98.15-.62.03-1.25.04-1.87.04-5.23,0-10.47,0-15.76,0Z"/>
</svg>