<?xml version="1.0" encoding="UTF-8" standalone="no"?>
<!-- Created with Inkscape (http://www.inkscape.org/) -->

<svg
   xmlns:dc="http://purl.org/dc/elements/1.1/"
   xmlns:cc="http://creativecommons.org/ns#"
   xmlns:rdf="http://www.w3.org/1999/02/22-rdf-syntax-ns#"
   xmlns:svg="http://www.w3.org/2000/svg"
   xmlns="http://www.w3.org/2000/svg"
   xmlns:sodipodi="http://sodipodi.sourceforge.net/DTD/sodipodi-0.dtd"
   xmlns:inkscape="http://www.inkscape.org/namespaces/inkscape"
   version="1.1"
   id="svg2"
   width="411.72128"
   height="132.11363"
   viewBox="0 0 411.72128 132.11364"
   sodipodi:docname="Scopus logo.svg"
   inkscape:version="0.92.1 r15371">
  <metadata
     id="metadata8">
    <rdf:RDF>
      <cc:Work
         rdf:about="">
        <dc:format>image/svg+xml</dc:format>
        <dc:type
           rdf:resource="http://purl.org/dc/dcmitype/StillImage" />
        <dc:title></dc:title>
      </cc:Work>
    </rdf:RDF>
  </metadata>
  <defs
     id="defs6" />
  <sodipodi:namedview
     pagecolor="#ffffff"
     bordercolor="#666666"
     borderopacity="1"
     objecttolerance="10"
     gridtolerance="10"
     guidetolerance="10"
     inkscape:pageopacity="0"
     inkscape:pageshadow="2"
     inkscape:window-width="1802"
     inkscape:window-height="1224"
     id="namedview4"
     showgrid="false"
     fit-margin-top="10"
     fit-margin-left="10"
     fit-margin-right="10"
     fit-margin-bottom="10"
     inkscape:zoom="1.0225"
     inkscape:cx="119.80418"
     inkscape:cy="67.576223"
     inkscape:window-x="0"
     inkscape:window-y="31"
     inkscape:window-maximized="0"
     inkscape:current-layer="svg2" />
  <path
     style="fill:#ff8200;fill-opacity:1;stroke-width:0.67800725"
     d="m 198.89124,121.21721 c -0.21942,-0.5718 -0.43083,-20.79706 -0.46978,-44.945008 l -0.0708,-43.905347 h 4.55052 c 5.02053,0 5.35826,0.255547 6.04859,4.576548 0.22342,1.398391 0.72453,2.542527 1.11359,2.542527 0.38908,0 2.28213,-1.378782 4.20683,-3.063961 4.88019,-4.272912 9.21425,-5.762838 16.57649,-5.698549 6.64214,0.05798 8.89256,0.701118 13.25787,3.788825 6.23734,4.411861 9.36427,12.917796 9.43036,25.652906 0.0868,16.748266 -5.9291,28.265342 -17.62314,33.737659 -3.75813,1.75864 -5.61843,2.18388 -10.59473,2.4218 -3.72301,0.178 -7.49497,-0.0608 -9.84285,-0.62315 -2.09365,-0.50145 -4.11174,-0.92213 -4.48464,-0.93483 -0.41929,-0.0144 -0.80736,5.1513 -1.01701,13.53704 l -0.33901,13.56015 -5.17166,0.19652 c -4.14715,0.15759 -5.25066,-0.009 -5.57059,-0.84314 z m 29.99102,-35.261517 c 4.48397,-1.582035 7.34001,-4.214872 9.63981,-8.886404 2.79977,-5.687175 3.8248,-13.179675 2.8319,-20.700118 -1.49603,-11.331432 -6.46173,-16.744112 -14.61781,-15.933583 -2.15354,0.214018 -4.76962,0.830789 -5.81353,1.370606 -2.5209,1.303624 -10.15561,9.51337 -10.6242,11.424414 -0.20362,0.830769 -0.2841,8.067724 -0.17863,16.082123 l 0.19176,14.571629 3.72905,1.510214 c 4.41434,1.787749 10.69233,2.025106 14.84172,0.561119 z M 19.347198,95.39666 c -7.307709,-1.63188 -9.3937891,-2.72549 -9.346413,-4.89978 0.05849,-2.680695 1.030061,-8.236976 1.527465,-8.734364 0.23368,-0.233681 2.035951,0.271584 4.005031,1.1228 7.687882,3.323395 16.393981,4.335647 22.562132,2.623271 C 42.160362,84.3801 46.326314,79.899671 46.9062,76.032697 47.798798,70.080403 44.200486,65.398445 34.19382,59.492005 15.585869,48.508627 10.659489,42.823901 10.644998,32.318133 c -0.0085,-6.89717 1.503078,-10.713774 6.050196,-15.265677 5.869977,-5.876196 9.466995,-7.04297 21.741469,-7.052336 8.355675,-0.0062 10.568819,0.224368 14.746657,1.537526 2.703553,0.849766 4.95064,1.917626 4.993545,2.373026 0.170772,1.813059 -0.233172,9.673264 -0.521324,10.14454 -0.169079,0.276342 -1.435024,0.01086 -2.813476,-0.590044 -8.886875,-3.873847 -18.619457,-4.914859 -24.384361,-2.608198 -5.471372,2.189211 -8.522361,8.132566 -6.938938,13.517119 1.119008,3.805214 6.988624,9.318816 14.962539,14.055 15.922787,9.457511 20.978032,15.346736 21.131982,24.618199 0.107419,6.470516 -1.712965,10.828123 -6.539296,15.653501 -5.83476,5.833581 -9.626092,7.202201 -20.739394,7.486611 -5.755033,0.14727 -9.923315,-0.10651 -12.987399,-0.79074 z m 69.851973,0.0161 C 79.925366,92.45315 73.099274,83.877833 70.935647,72.469016 69.971055,67.382796 70.180496,57.191344 71.34116,52.735216 73.683207,43.743512 79.506824,36.38933 87.105336,32.827911 90.39617,31.285489 92.07833,30.976274 98.23336,30.782317 c 8.60095,-0.271027 13.57066,0.899525 17.14573,4.038478 2.55493,2.243282 3.99817,5.85396 3.63114,9.084415 -0.22701,1.997843 -0.2838,2.024135 -4.80249,2.222153 l -4.5728,0.200394 -1.12837,-2.366233 c -1.52443,-3.196755 -3.78351,-3.987705 -10.56441,-3.698835 -6.38539,0.272017 -8.226199,1.257623 -11.555386,6.186973 -3.081902,4.563192 -4.053699,9.114188 -3.780843,17.706002 0.220162,6.933026 0.426592,7.942748 2.474324,12.102259 4.487858,9.116096 12.527225,12.541983 22.559595,9.613528 2.02541,-0.591229 5.00964,-1.842295 6.63159,-2.780155 1.62195,-0.937861 3.19673,-1.445717 3.49948,-1.128569 0.30278,0.317149 0.65379,2.388665 0.78006,4.603368 0.22367,3.923615 0.17034,4.067035 -2.08357,5.599835 -3.82512,2.60141 -8.66675,3.76796 -16.6711,4.01677 -5.2705,0.16383 -8.37881,-0.062 -10.597139,-0.76995 z m 55.878559,0.0421 c -9.13672,-2.85544 -16.16052,-10.620011 -18.89352,-20.88614 -1.32496,-4.977002 -1.25124,-17.591807 0.13009,-22.24716 2.72275,-9.176828 7.36105,-14.968265 15.01917,-18.753112 l 5.17511,-2.557674 h 8.84924 c 8.18137,0 9.14188,0.137149 12.72616,1.8171 7.12375,3.338902 12.56623,9.788696 15.16684,17.973981 1.62379,5.110843 1.98753,16.612288 0.69832,22.081923 -2.75103,11.67148 -10.2515,19.747962 -20.99649,22.608932 -4.37097,1.16381 -14.09569,1.14322 -17.87484,-0.0378 z m 18.45126,-10.265393 c 5.4726,-2.824057 9.43126,-12.179927 9.2973,-21.973287 -0.11545,-8.443518 -2.06043,-14.184936 -6.21147,-18.335987 -3.64287,-3.642851 -6.44902,-4.706706 -12.43021,-4.712476 -8.81104,-0.0086 -13.66094,4.621174 -16.52043,15.770294 -1.28336,5.003747 -0.94436,13.11023 0.78343,18.735045 1.32526,4.314351 6.71229,10.171481 10.50423,11.420913 3.69118,1.216228 11.39365,0.738294 14.57715,-0.904502 z M 277.85796,95.28325 c -4.05092,-1.43154 -7.78008,-5.342635 -9.32574,-9.780742 -1.14914,-3.299527 -1.26811,-5.962869 -1.26811,-28.388394 V 32.366855 l 5.16843,-0.196474 c 4.89093,-0.185923 5.19075,-0.113127 5.5843,1.356014 0.22871,0.85387 0.42174,11.01069 0.4289,22.570713 0.008,12.634693 0.29865,22.046773 0.72914,23.596889 0.39382,1.418268 1.56127,3.524643 2.59432,4.680827 1.56868,1.755625 2.49595,2.153378 5.62529,2.412885 6.16602,0.511333 10.69895,-1.199048 14.41659,-5.439735 5.86397,-6.688995 5.79446,-6.33877 5.79446,-29.193965 V 32.02785 h 5.04503 c 2.77479,0 5.19404,0.241088 5.37617,0.53575 0.182,0.29466 0.40039,14.405687 0.48504,31.357834 l 0.15405,30.822086 -3.8923,0.20504 c -4.61246,0.24298 -5.67102,-0.44122 -6.24604,-4.03717 -0.57928,-3.622805 -1.39008,-3.850452 -3.70617,-1.040613 -1.0897,1.322003 -3.85623,3.340563 -6.14784,4.485703 -3.85836,1.92804 -4.67267,2.0781 -11.00786,2.02853 -4.31105,-0.0337 -7.93836,-0.44122 -9.80758,-1.10177 z m 65.00396,0.19056 c -4.46972,-1.23567 -8.03663,-3.07652 -8.43897,-4.35526 -0.39191,-1.24553 0.54503,-8.030315 1.19928,-8.684552 0.22906,-0.22907 2.69329,0.70849 5.47602,2.083477 8.45967,4.179994 17.86621,4.058918 22.21103,-0.285896 1.5742,-1.574212 1.92686,-2.514071 1.92686,-5.13505 0,-2.835189 -0.30084,-3.494355 -2.58771,-5.669809 -1.42325,-1.353899 -5.59659,-3.925654 -9.27412,-5.715005 -8.92721,-4.34366 -13.89966,-7.816543 -16.29369,-11.379871 -1.66034,-2.471355 -2.01817,-3.76715 -2.21781,-8.031821 -0.20362,-4.348235 -0.002,-5.527143 1.38963,-8.136087 2.06747,-3.875315 6.32717,-7.141031 11.13931,-8.539954 5.70028,-1.657119 17.52779,-1.078482 22.92946,1.121774 l 4.06804,1.657037 0.17523,4.067087 c 0.26325,6.106588 -0.23338,6.451728 -5.46353,3.797036 -5.08291,-2.579946 -13.29041,-3.579416 -17.63072,-2.146983 -3.02204,0.997362 -5.89795,4.270897 -5.89193,6.706598 0.0101,4.182707 3.13288,6.831702 14.59803,12.384072 12.46559,6.036876 17.39428,12.334451 16.37681,20.925271 -0.8021,6.772722 -5.34207,12.272356 -12.27084,14.864756 -3.09313,1.15728 -5.26068,1.42608 -11.1063,1.37729 -3.99475,-0.0334 -8.63612,-0.44019 -10.3142,-0.90411 z m 46.96535,-66.485184 c -4.12133,-1.791663 -6.18428,-7.833046 -4.01165,-11.748274 1.37374,-2.475593 4.53287,-4.187283 7.7373,-4.192233 2.32664,-0.0034 3.36615,0.430528 5.32136,2.222346 4.57357,4.191378 3.46742,11.419329 -2.10386,13.747157 -2.86948,1.19894 -4.13066,1.19368 -6.94315,-0.02902 z m 5.5242,-2.294214 c 0.1996,-0.323071 -0.26754,-1.158051 -1.03823,-1.855526 -1.36909,-1.239014 -1.4227,-1.238799 -2.33532,0.0093 -0.51374,0.702566 -0.77326,1.537552 -0.57675,1.855517 0.46681,0.755328 3.48211,0.74825 3.9503,-0.0093 z m -5.72961,-5.684179 -0.0224,-4.237544 -1.33347,1.600626 c -1.50583,1.807546 -1.61637,2.652012 -0.67223,5.135307 1.15669,3.042334 2.05187,1.939651 2.02824,-2.498389 z m 9.51465,0.191559 c 0,-1.54368 -0.4613,-2.9414 -1.18777,-3.598829 -1.79101,-1.620852 -4.54424,-2.497175 -5.6489,-1.797967 -0.70884,0.448683 -0.49377,0.61064 0.82109,0.618302 2.52807,0.01462 3.55018,1.534223 3.00103,4.46139 -0.28673,1.528518 -0.15592,2.793647 0.35211,3.405827 1.2543,1.511312 2.66244,-0.122316 2.66244,-3.088723 z m -5.42405,-1.757097 c 0,-0.581365 -0.31009,-0.865383 -0.68908,-0.631156 -0.37897,0.234223 -0.51351,0.709886 -0.29898,1.057026 0.58121,0.940424 0.98806,0.765069 0.98806,-0.42587 z"
     id="path4487"
     inkscape:connector-curvature="0" />
</svg>
