<?xml version="1.0" encoding="utf-8"?>
<!-- Generator: Adobe Illustrator 19.0.0, SVG Export Plug-In . SVG Version: 6.00 Build 0)  -->
<svg version="1.1" id="layer" xmlns="http://www.w3.org/2000/svg" xmlns:xlink="http://www.w3.org/1999/xlink" x="0px" y="0px"
	 viewBox="-153 80 652 400" style="enable-background:new -153 -46 652 652;" xml:space="preserve">
<style type="text/css">
	.st0{fill:#16AB03;}
	.st1{fill:#5E33BF;}
</style>
<path class="st0" d="M-94.8,242c-6.1,6.1-13.9,10.1-22.4,11.5c1.4,3.7,3.3,7.3,5.7,10.4c9.7-2.4,18.6-7.5,25.5-14.7
	c-1.6-3.7-3.7-7.1-6.2-10.1C-93,240.1-93.9,241.1-94.8,242"/>
<path d="M-117.2,253.5c-3.4-9.3-3.3-19.5,0.1-28.8c-3.9-0.7-7.9-0.8-11.9-0.3c-2.8,9.6-2.8,19.8-0.1,29.4
	C-125.1,254.3-121.1,254.2-117.2,253.5"/>
<path class="st1" d="M-111.3,214.3c-2.4,3.2-4.4,6.7-5.8,10.4c8.4,1.4,16.2,5.5,22.3,11.5c0.9,0.9,1.8,1.9,2.6,2.9
	c2.5-3.1,4.6-6.5,6.2-10.1C-92.9,221.8-101.7,216.7-111.3,214.3"/>
<path d="M-52.3,252.5c4.9,0.3,9.4-2.9,10.8-7.6h8.7c-2.2,8.9-10.3,15.1-19.5,14.8c-11.1,0.3-20.4-8.4-20.7-19.5c0-0.4,0-0.7,0-1.1
	c-0.3-11.1,8.5-20.3,19.6-20.6c0.4,0,0.7,0,1.1,0c9.2-0.2,17.3,5.9,19.5,14.8h-8.7c-1.4-4.7-5.9-7.8-10.8-7.6
	c-6.8-0.1-12.5,5.4-12.5,12.3c0,0.3,0,0.7,0,1c-0.5,6.8,4.6,12.8,11.5,13.3C-53,252.5-52.6,252.5-52.3,252.5z M-21.4,259.1h-7.3
	v-39.8h7.3V259.1z M-1,241.7c0-1.9-1.5-3.1-4.3-3.1c-2.8,0.2-5.5,1-7.8,2.4l-2.9-5.6c3.4-2,7.2-3.1,11.1-3.2
	c5.9,0,11.3,2.7,11.3,9.6v17.1H-1v-2.4c-1.8,2.1-4.5,3.3-7.3,3.1c-4.7,0.3-8.8-3.2-9.1-7.9c0-0.1,0-0.2,0-0.2c0-4.9,3.6-8,9.4-8h5.1
	c1.3,0,1.8-0.6,1.8-1.5L-1,241.7z M-1,249.8v-1.9c-0.7,0.5-1.5,0.7-2.3,0.6h-2.8c-2.3,0-3.7,1-3.7,2.8c0,1.8,1.4,3.1,3.7,3.1
	c2.5,0.3,4.7-1.4,5-3.9C-1,250.2-1,250-1,249.8z M26.7,240.3h-3.1c-3.8,0-5.5,1.8-5.5,6.3v12.4h-7.4v-26h7.2v4.1
	c1-2.8,3.8-4.6,6.8-4.5c0.7,0,1.4,0.1,2,0.2V240.3z M41.2,259.1h-7.4v-19.8h-3.6v-6.3h11V259.1z M37.2,219.3c2.6,0,4.8,2.1,4.8,4.8
	c0,0,0,0,0,0c0,2.6-2.2,4.7-4.8,4.7c-2.6,0-4.7-2.1-4.7-4.7C32.4,221.5,34.6,219.3,37.2,219.3z M57.8,251.1l5.9-18.1h7.8l-9.3,26
	h-9.1l-8.9-26h8L57.8,251.1z M88.2,241.7c0-1.9-1.5-3.1-4.3-3.1c-2.8,0.2-5.5,1-7.8,2.4l-2.9-5.6c3.4-2,7.2-3.1,11.1-3.2
	c5.9,0,11.3,2.7,11.3,9.6v17.1h-7.4v-2.4c-1.8,2.1-4.5,3.3-7.3,3.1c-4.7,0.3-8.8-3.2-9.1-7.9c0-0.1,0-0.2,0-0.2c0-4.9,3.6-8,9.4-8
	h5.1c1.3,0,1.8-0.6,1.8-1.5L88.2,241.7z M88.2,249.8v-1.9c-0.7,0.5-1.5,0.7-2.3,0.6h-2.8c-2.3,0-3.7,1-3.7,2.8
	c0,1.8,1.4,3.1,3.7,3.1c2.5,0.3,4.7-1.4,5-3.9C88.2,250.2,88.2,250,88.2,249.8z M109.9,223.2v9.9h5.6v6.3h-5.6v11.8
	c0,1.6,1.3,1.9,2.4,1.9c1.9,0,3.4-0.2,3.4-0.2v6.3c0,0-3.6,0.3-5.7,0.3c-3.7,0-7.5-0.6-7.5-5.9v-14.3h-4.1v-6.3h4.1v-9.9H109.9z
	 M145,248.2h-19.4c0.5,3.4,3.7,5.7,7.1,5.2c1.7-0.3,3.2-1.2,4.1-2.6l7.7,0.8c-3.2,7-11.5,10.1-18.5,6.9c-4.9-2.2-8.1-7.1-8.2-12.5
	c-0.3-7.3,5.4-13.4,12.7-13.7c0.3,0,0.6,0,0.9,0c7.2,0,13.6,4.7,13.6,15.6L145,248.2z M125.4,243.3h11.6c-0.4-2.8-2.9-4.9-5.7-4.8
	C128.5,238.4,125.9,240.4,125.4,243.3z M456.6,279.4h-2.8v7.5h-3v-7.5H448v-2.6h8.6L456.6,279.4z M462.4,284.7l-1.3-3.6v5.8h-2.8
	v-10.1h3.9l1.5,4.2l1.6-4.2h3.7v10.1H466v-5.8l-1.3,3.6H462.4z M-29,276.8l10.9,40.7h0.1l9.1-40.7H2.6l-13.9,56.8h-13.1l-10.7-40.8
	l-10.5,40.8h-13.1l-14-56.8h12.2l8.8,40.7h0.1l10.9-40.7H-29z M37.8,318.1H10.1c0.7,4.8,5.3,8.1,10.1,7.4c2.4-0.4,4.5-1.7,5.9-3.7
	l11,1.1c-4.5,10-16.4,14.5-26.4,9.9C3.7,329.6-0.8,322.7-1,315c-0.4-10.4,7.7-19.1,18.1-19.6c0.4,0,0.8,0,1.2,0
	c10.2,0,19.5,6.7,19.5,22.2L37.8,318.1z M9.9,311h16.6c-0.6-4-4.1-6.9-8.2-6.8C14.2,304.1,10.6,307,9.9,311L9.9,311z M53,333.6H42.4
	v-56.8H53v18.3c0,2.4-0.2,5-0.2,6.1c2.6-3.8,7.1-6,11.8-5.8c10.2,0,18,8.2,18,19.6c0,11.4-7.9,19.6-18.1,19.6
	c-4.6,0.2-8.9-1.9-11.5-5.7L53,333.6z M52.8,315c-0.4,5.2,3.5,9.8,8.8,10.2c5.2,0.4,9.8-3.5,10.2-8.8c0-0.5,0-0.9,0-1.4
	c0.3-5.2-3.6-9.8-8.9-10.1s-9.8,3.6-10.1,8.9C52.7,314.2,52.7,314.6,52.8,315z M98.5,315c-0.2-11,8.6-20,19.6-20.2
	c11-0.2,20,8.6,20.2,19.6c0.2,11-8.6,20-19.6,20.2c-0.1,0-0.2,0-0.3,0c-10.7,0.3-19.6-8.1-19.9-18.8C98.5,315.5,98.5,315.2,98.5,315
	z M109,315c-0.5,5.1,3.3,9.7,8.5,10.1s9.7-3.3,10.1-8.5c0-0.5,0-1.1,0-1.6c0.5-5.1-3.3-9.7-8.5-10.1s-9.7,3.3-10.1,8.5
	C109,313.9,109,314.4,109,315z M145.5,285.8c0-7.3,4.9-9.8,10.6-9.8c2.8,0,7.7,0.5,7.7,0.5v9.7c0,0-3.2-0.4-4.4-0.4
	c-2,0-3.3,0.5-3.3,3.1v7.5h7.1v8.9H156v28.2h-10.6v-28.2h-5.8v-8.9h5.8L145.5,285.8z M212.9,291.9c-3.1-3.4-7.4-5.4-12-5.8
	c-3.7,0-7.1,1.9-7.1,5.4c0,2.6,1.6,4.6,6.2,6.7l4.7,2.2c9,4.2,14.4,8.9,14.4,17.5c0,8.5-7.2,16.8-19.7,16.8c-7.7,0.1-15-3-20.4-8.5
	l6.3-8.4c3.6,3.9,8.6,6.3,13.9,6.7c4.9,0,7.9-2.7,7.9-6.2c0-3.9-3.5-6.1-8.9-8.6l-4-1.9c-7.6-3.6-12.4-8.8-12.4-15.9
	c0-10,8.9-16,19-16c7,0.4,13.6,3.2,18.8,8L212.9,291.9z M233.5,315c-0.4,5.2,3.4,9.7,8.6,10.1c0.2,0,0.5,0,0.7,0
	c3.7,0.1,7-2.2,8.2-5.7l9.9,3.1c-2.8,7.5-10.2,12.4-18.2,12c-10.8,0.1-19.7-8.5-19.8-19.3s8.5-19.7,19.3-19.8c0.2,0,0.3,0,0.5,0
	c8-0.3,15.4,4.5,18.2,12.1l-9.9,3c-1.2-3.4-4.5-5.7-8.2-5.7c-5.2,0-9.4,4.2-9.4,9.4C233.4,314.5,233.4,314.8,233.5,315z
	 M279.5,333.6h-10.6v-28.2h-5.2v-8.9h15.7L279.5,333.6z M273.7,276.8c3.8,0,6.8,3,6.8,6.8c0,0,0,0,0,0c0,3.7-3.1,6.8-6.8,6.7
	c-3.7,0-6.7-3-6.7-6.7C267,279.8,270,276.8,273.7,276.8z M323.6,318.1h-27.7c0.7,4.8,5.3,8.1,10.1,7.4c2.4-0.4,4.5-1.7,5.9-3.7
	l11,1.1c-4.5,10-16.4,14.5-26.4,9.9c-7-3.2-11.6-10.1-11.7-17.8c-0.4-10.4,7.7-19.1,18.1-19.6c0.4,0,0.8,0,1.2,0
	c10.2,0,19.5,6.7,19.5,22.2V318.1z M295.6,311h16.6c-0.6-4-4.1-6.9-8.2-6.8C300,304.1,296.4,307,295.6,311z M349.7,295.4
	c7.1-0.5,13.3,4.9,13.8,12c0,0.6,0,1.2,0,1.8v24.4H353v-21.7c0.4-3.3-2-6.3-5.3-6.6c-0.3,0-0.7,0-1,0c-3.1,0.1-6,1.7-7.9,4.2v24.1
	h-10.6v-37.2h10.3v1.5c0,1.3-0.2,2.9-0.2,2.9C341.1,297.4,345.3,295.4,349.7,295.4z M378.8,315c-0.4,5.2,3.4,9.7,8.6,10.1
	c0.2,0,0.5,0,0.7,0c3.7,0.1,7-2.2,8.2-5.7l9.9,3.1c-2.8,7.5-10.2,12.4-18.2,12c-10.8,0.1-19.7-8.5-19.8-19.3
	c-0.1-10.8,8.5-19.7,19.3-19.8c0.2,0,0.3,0,0.5,0c8-0.3,15.4,4.5,18.2,12.1l-9.9,3c-1.2-3.4-4.5-5.7-8.2-5.7c-5.2,0-9.4,4.2-9.4,9.4
	C378.7,314.5,378.8,314.8,378.8,315z M448.1,318.1h-27.7c0.7,4.8,5.3,8.1,10.1,7.4c2.4-0.4,4.5-1.7,5.9-3.7l11,1.1
	c-4.5,10-16.4,14.5-26.4,9.9c-7-3.2-11.6-10.1-11.7-17.8c-0.4-10.4,7.7-19.1,18.1-19.6c0.4,0,0.8,0,1.2,0c10.2,0,19.5,6.7,19.5,22.2
	V318.1z M420.2,311h16.6c-0.6-4-4.1-6.9-8.2-6.8C424.5,304.1,420.9,307,420.2,311z"/>
</svg>
